<svg width="132" height="22" viewBox="0 0 132 22" fill="none" xmlns="http://www.w3.org/2000/svg">
<path d="M19.5156 2.45312C19.7656 2.45312 19.9583 2.5 20.0938 2.59375C20.2292 2.67708 20.3281 2.83333 20.3906 3.0625C20.4635 3.29167 20.5 3.625 20.5 4.0625C20.5 4.5 20.4635 4.83333 20.3906 5.0625C20.3281 5.29167 20.2292 5.44792 20.0938 5.53125C19.9583 5.61458 19.7656 5.65625 19.5156 5.65625H18.6406L17.0625 20.3281C17.0312 20.5885 16.9583 20.7917 16.8438 20.9375C16.7292 21.0833 16.5417 21.1875 16.2812 21.25C16.0208 21.3125 15.651 21.3438 15.1719 21.3438C14.4844 21.3438 13.9844 21.2656 13.6719 21.1094C13.3698 20.9531 13.1562 20.6927 13.0312 20.3281L10.5312 12.9688L8 20.3281C7.875 20.6927 7.65625 20.9531 7.34375 21.1094C7.03125 21.2656 6.52604 21.3438 5.82812 21.3438C5.34896 21.3438 4.97917 21.3125 4.71875 21.25C4.46875 21.1875 4.28646 21.0833 4.17188 20.9375C4.06771 20.7917 4 20.5885 3.96875 20.3281L2.45312 5.65625H1.67188C1.42188 5.65625 1.22917 5.61458 1.09375 5.53125C0.958333 5.44792 0.859375 5.29167 0.796875 5.0625C0.723958 4.83333 0.6875 4.5 0.6875 4.0625C0.6875 3.625 0.723958 3.29167 0.796875 3.0625C0.859375 2.83333 0.958333 2.67708 1.09375 2.59375C1.22917 2.5 1.42188 2.45312 1.67188 2.45312H7.82812C8.07812 2.45312 8.27083 2.5 8.40625 2.59375C8.54167 2.67708 8.64062 2.83333 8.70312 3.0625C8.77604 3.29167 8.8125 3.625 8.8125 4.0625C8.8125 4.5 8.77604 4.83333 8.70312 5.0625C8.64062 5.29167 8.54167 5.44792 8.40625 5.53125C8.27083 5.61458 8.07812 5.65625 7.82812 5.65625H6L6.82812 14.7812L9.10938 8.09375C9.18229 7.85417 9.32292 7.67188 9.53125 7.54688C9.73958 7.42188 10.0885 7.35938 10.5781 7.35938C11.099 7.35938 11.474 7.41146 11.7031 7.51562C11.9323 7.60938 12.0781 7.76562 12.1406 7.98438L14.4375 14.7812L15.2812 5.65625H13.6719C13.4219 5.65625 13.2292 5.61458 13.0938 5.53125C12.9583 5.44792 12.8542 5.29167 12.7812 5.0625C12.7188 4.83333 12.6875 4.5 12.6875 4.0625C12.6875 3.625 12.7188 3.29167 12.7812 3.0625C12.8542 2.83333 12.9583 2.67708 13.0938 2.59375C13.2292 2.5 13.4219 2.45312 13.6719 2.45312H19.5156ZM26.3438 0.5C26.6979 0.5 26.9479 0.578125 27.0938 0.734375C27.25 0.880208 27.3281 1.13021 27.3281 1.48438V9.07812C28.5781 7.17188 30.0885 6.21875 31.8594 6.21875C32.8073 6.21875 33.6354 6.42708 34.3438 6.84375C35.0625 7.26042 35.6146 7.85417 36 8.625C36.3854 9.38542 36.5781 10.2812 36.5781 11.3125V17.7969H37.7812C38.0312 17.7969 38.224 17.8438 38.3594 17.9375C38.4948 18.0208 38.5938 18.1771 38.6562 18.4062C38.7292 18.6354 38.7656 18.9688 38.7656 19.4062C38.7656 19.8438 38.7292 20.1771 38.6562 20.4062C38.5938 20.6354 38.4948 20.7917 38.3594 20.875C38.224 20.9583 38.0312 21 37.7812 21H31.9375C31.6875 21 31.4948 20.9583 31.3594 20.875C31.224 20.7917 31.1198 20.6354 31.0469 20.4062C30.9844 20.1771 30.9531 19.8438 30.9531 19.4062C30.9531 18.9688 30.9844 18.6354 31.0469 18.4062C31.1198 18.1771 31.224 18.0208 31.3594 17.9375C31.4948 17.8438 31.6875 17.7969 31.9375 17.7969H32.6719V12.2344C32.6719 11.4219 32.5312 10.8073 32.25 10.3906C31.9688 9.97396 31.5 9.76562 30.8438 9.76562C30.2396 9.76562 29.6667 10.0208 29.125 10.5312C28.5833 11.0312 28.1458 11.7031 27.8125 12.5469C27.4896 13.3906 27.3281 14.2917 27.3281 15.25V17.7969H28.0625C28.3125 17.7969 28.5052 17.8438 28.6406 17.9375C28.776 18.0208 28.875 18.1771 28.9375 18.4062C29.0104 18.6354 29.0469 18.9688 29.0469 19.4062C29.0469 19.8438 29.0104 20.1771 28.9375 20.4062C28.875 20.6354 28.776 20.7917 28.6406 20.875C28.5052 20.9583 28.3125 21 28.0625 21H22.2188C21.9688 21 21.776 20.9583 21.6406 20.875C21.5052 20.7917 21.401 20.6354 21.3281 20.4062C21.2656 20.1771 21.2344 19.8438 21.2344 19.4062C21.2344 18.9688 21.2656 18.6354 21.3281 18.4062C21.401 18.1771 21.5052 18.0208 21.6406 17.9375C21.776 17.8438 21.9688 17.7969 22.2188 17.7969H23.4219V3.70312H21.9062C21.6562 3.70312 21.4635 3.66146 21.3281 3.57812C21.1927 3.49479 21.0885 3.33854 21.0156 3.10938C20.9531 2.88021 20.9219 2.54688 20.9219 2.10938C20.9219 1.67188 20.9531 1.33854 21.0156 1.10938C21.0885 0.880208 21.1927 0.723958 21.3281 0.640625C21.4635 0.546875 21.6562 0.5 21.9062 0.5H26.3438ZM48.9688 6.21875C50.5521 6.21875 51.9375 6.54167 53.125 7.1875C54.3125 7.83333 55.224 8.72917 55.8594 9.875C56.5052 11.0208 56.8281 12.3229 56.8281 13.7812C56.8281 15.2396 56.5052 16.5417 55.8594 17.6875C55.224 18.8333 54.3125 19.7292 53.125 20.375C51.9375 21.0208 50.5521 21.3438 48.9688 21.3438C47.3854 21.3438 46 21.0208 44.8125 20.375C43.625 19.7292 42.7083 18.8333 42.0625 17.6875C41.4271 16.5417 41.1094 15.2396 41.1094 13.7812C41.1094 12.3229 41.4271 11.0208 42.0625 9.875C42.7083 8.72917 43.625 7.83333 44.8125 7.1875C46 6.54167 47.3854 6.21875 48.9688 6.21875ZM48.9688 9.76562C48.2188 9.76562 47.5677 9.93229 47.0156 10.2656C46.4635 10.5885 46.0365 11.0521 45.7344 11.6562C45.4427 12.2604 45.2969 12.9688 45.2969 13.7812C45.2969 14.5938 45.4427 15.3021 45.7344 15.9062C46.0365 16.5104 46.4635 16.9792 47.0156 17.3125C47.5677 17.6354 48.2188 17.7969 48.9688 17.7969C49.7188 17.7969 50.3698 17.6354 50.9219 17.3125C51.474 16.9792 51.8958 16.5104 52.1875 15.9062C52.4896 15.3021 52.6406 14.5938 52.6406 13.7812C52.6406 12.9688 52.4896 12.2604 52.1875 11.6562C51.8958 11.0521 51.474 10.5885 50.9219 10.2656C50.3698 9.93229 49.7188 9.76562 48.9688 9.76562ZM69.4531 2.45312C69.8698 2.45312 70.2083 2.53646 70.4688 2.70312C70.7292 2.85938 70.9167 3.11458 71.0312 3.46875L75.5625 17.7969H76.9219C77.1719 17.7969 77.3646 17.8385 77.5 17.9219C77.6354 18.0052 77.7344 18.1615 77.7969 18.3906C77.8698 18.6198 77.9062 18.9531 77.9062 19.3906C77.9062 19.8281 77.8698 20.1615 77.7969 20.3906C77.7344 20.6198 77.6354 20.7812 77.5 20.875C77.3646 20.9583 77.1719 21 76.9219 21H70.2969C70.0469 21 69.8542 20.9583 69.7188 20.875C69.5833 20.7812 69.4792 20.6198 69.4062 20.3906C69.3438 20.1615 69.3125 19.8281 69.3125 19.3906C69.3125 18.9531 69.3438 18.6198 69.4062 18.3906C69.4792 18.1615 69.5833 18.0052 69.7188 17.9219C69.8542 17.8385 70.0469 17.7969 70.2969 17.7969H71.6406L70.9375 15.5312H65.25L64.5469 17.7969H65.7031C65.9531 17.7969 66.1458 17.8385 66.2812 17.9219C66.4167 18.0052 66.5156 18.1615 66.5781 18.3906C66.651 18.6198 66.6875 18.9531 66.6875 19.3906C66.6875 19.8281 66.651 20.1615 66.5781 20.3906C66.5156 20.6198 66.4167 20.7812 66.2812 20.875C66.1458 20.9583 65.9531 21 65.7031 21H59.3906C59.1406 21 58.9479 20.9583 58.8125 20.875C58.6771 20.7812 58.5781 20.6198 58.5156 20.3906C58.4427 20.1615 58.4062 19.8281 58.4062 19.3906C58.4062 18.9531 58.4427 18.6198 58.5156 18.3906C58.5781 18.1615 58.6771 18.0052 58.8125 17.9219C58.9479 17.8385 59.1406 17.7969 59.3906 17.7969H60.7031L64.6562 5.65625H62.0469C61.7969 5.65625 61.6042 5.61458 61.4688 5.53125C61.3333 5.4375 61.2292 5.27604 61.1562 5.04688C61.0938 4.81771 61.0625 4.48438 61.0625 4.04688C61.0625 3.60938 61.0938 3.27604 61.1562 3.04688C61.2292 2.81771 61.3333 2.66146 61.4688 2.57812C61.6042 2.49479 61.7969 2.45312 62.0469 2.45312H69.4531ZM68.0781 5.65625L66.1562 12.3281H70.0469L68.1719 5.65625H68.0781ZM92.8438 6.21875C93.8021 6.21875 94.5573 6.60938 95.1094 7.39062C95.6615 8.17188 95.9375 9.35938 95.9375 10.9531V20.0156C95.9375 20.3698 95.8594 20.625 95.7031 20.7812C95.5573 20.9271 95.3073 21 94.9531 21H93.0156C92.6615 21 92.4062 20.9271 92.25 20.7812C92.1042 20.625 92.0312 20.3698 92.0312 20.0156V11.8438C92.0312 11.2917 91.9635 10.8854 91.8281 10.625C91.7031 10.3646 91.5 10.2344 91.2188 10.2344C90.7292 10.2344 90.3385 10.6146 90.0469 11.375C89.7656 12.1354 89.625 13.2448 89.625 14.7031V20.0156C89.625 20.3698 89.5469 20.625 89.3906 20.7812C89.2448 20.9271 88.9948 21 88.6406 21H86.7031C86.349 21 86.0938 20.9271 85.9375 20.7812C85.7917 20.625 85.7188 20.3698 85.7188 20.0156V11.8438C85.7188 11.2917 85.651 10.8854 85.5156 10.625C85.3906 10.3646 85.1875 10.2344 84.9062 10.2344C84.4167 10.2344 84.026 10.6146 83.7344 11.375C83.4531 12.1354 83.3125 13.2448 83.3125 14.7031V20.0156C83.3125 20.3698 83.2344 20.625 83.0781 20.7812C82.9323 20.9271 82.6823 21 82.3281 21H80.3906C80.0365 21 79.7812 20.9271 79.625 20.7812C79.4792 20.625 79.4062 20.3698 79.4062 20.0156V9.76562H78.5156C78.2656 9.76562 78.0729 9.72396 77.9375 9.64062C77.8021 9.55729 77.7031 9.40104 77.6406 9.17188C77.5677 8.94271 77.5312 8.60938 77.5312 8.17188C77.5312 7.73438 77.5677 7.40104 77.6406 7.17188C77.7031 6.94271 77.8021 6.78646 77.9375 6.70312C78.0729 6.60938 78.2656 6.5625 78.5156 6.5625H81.2344C81.5885 6.5625 81.8385 6.64062 81.9844 6.79688C82.1406 6.94271 82.2188 7.19271 82.2188 7.54688V9.79688C82.7083 8.61979 83.2812 7.72917 83.9375 7.125C84.6042 6.52083 85.3333 6.21875 86.125 6.21875C87.6667 6.21875 88.6615 7.27604 89.1094 9.39062C89.5885 8.34896 90.1458 7.5625 90.7812 7.03125C91.4167 6.48958 92.1042 6.21875 92.8438 6.21875ZM112.172 2.45312C112.422 2.45312 112.615 2.5 112.75 2.59375C112.885 2.67708 112.984 2.83333 113.047 3.0625C113.12 3.29167 113.156 3.625 113.156 4.0625C113.156 4.5 113.12 4.83333 113.047 5.0625C112.984 5.29167 112.885 5.44792 112.75 5.53125C112.615 5.61458 112.422 5.65625 112.172 5.65625H108.484V17.7969H112.484C112.734 17.7969 112.927 17.8438 113.062 17.9375C113.198 18.0208 113.297 18.1771 113.359 18.4062C113.432 18.6354 113.469 18.9688 113.469 19.4062C113.469 19.8438 113.432 20.1771 113.359 20.4062C113.297 20.6354 113.198 20.7917 113.062 20.875C112.927 20.9583 112.734 21 112.484 21H100.578C100.328 21 100.135 20.9583 100 20.875C99.8646 20.7917 99.7604 20.6354 99.6875 20.4062C99.625 20.1771 99.5938 19.8438 99.5938 19.4062C99.5938 18.9688 99.625 18.6354 99.6875 18.4062C99.7604 18.1771 99.8646 18.0208 100 17.9375C100.135 17.8438 100.328 17.7969 100.578 17.7969H104.578V5.65625H100.891C100.641 5.65625 100.448 5.61458 100.312 5.53125C100.177 5.44792 100.073 5.29167 100 5.0625C99.9375 4.83333 99.9062 4.5 99.9062 4.0625C99.9062 3.625 99.9375 3.29167 100 3.0625C100.073 2.83333 100.177 2.67708 100.312 2.59375C100.448 2.5 100.641 2.45312 100.891 2.45312H112.172Z" fill="#1C1C1C"/>
<path d="M125.5 1.17188C127.51 1.17188 129.047 1.66146 130.109 2.64062C131.182 3.61979 131.719 4.97917 131.719 6.71875C131.719 8.16667 131.323 9.30729 130.531 10.1406C129.75 10.9635 128.547 11.599 126.922 12.0469L126.828 13.3906C126.807 13.651 126.682 13.8438 126.453 13.9688C126.224 14.0833 125.823 14.1406 125.25 14.1406C124.677 14.1406 124.276 14.0833 124.047 13.9688C123.818 13.8438 123.693 13.651 123.672 13.3906L123.484 10.125C123.464 9.66667 123.625 9.40104 123.969 9.32812L125.578 9.01562C126.328 8.86979 126.885 8.61458 127.25 8.25C127.615 7.875 127.797 7.36458 127.797 6.71875C127.797 6.01042 127.589 5.47396 127.172 5.10938C126.766 4.74479 126.161 4.5625 125.359 4.5625C124.578 4.5625 123.781 4.71875 122.969 5.03125V6.46875C122.969 6.83333 122.849 7.08854 122.609 7.23438C122.37 7.38021 121.927 7.45312 121.281 7.45312C120.615 7.45312 120.13 7.38021 119.828 7.23438C119.526 7.07812 119.375 6.82292 119.375 6.46875V3.5C119.375 3.07292 119.589 2.75521 120.016 2.54688C121.953 1.63021 123.781 1.17188 125.5 1.17188ZM125.25 16.4688C126.052 16.4688 126.63 16.5469 126.984 16.7031C127.339 16.849 127.516 17.099 127.516 17.4531V20.1719C127.516 20.526 127.339 20.7812 126.984 20.9375C126.63 21.0833 126.052 21.1562 125.25 21.1562C124.448 21.1562 123.87 21.0833 123.516 20.9375C123.161 20.7812 122.984 20.526 122.984 20.1719V17.4531C122.984 17.099 123.161 16.849 123.516 16.7031C123.87 16.5469 124.448 16.4688 125.25 16.4688Z" fill="#FA8072"/>
</svg>
